# xmcd
#
# Track frame offsets:
#	150
#	17362
#	27915
#	40978
#	65966
#	90651
#	105021
#	115068
#	125751
#	145181
#
# Disc length: 2227 seconds
#
# Revision: 0
# Processed by: cddbd v1.5.2PL0 Copyright (c) Steve Scherf et al.
# Submitted via: dBpowerAMP V4.0
#
DISCID=7e08b10a
DTITLE=Caleb Stine and The Barkmen - October 29th
DYEAR=2006
DGENRE=Folk-Rock
TTITLE0=Lonesome Kid
TTITLE1=Since Sunday
TTITLE2=Devil
TTITLE3=Coyote
TTITLE4=The Brakeman's Lament
TTITLE5=Riverside
TTITLE6=Diver Blues
TTITLE7=Oh Nebraska
TTITLE8=Tempest
TTITLE9=The Woman I Know You To Be
EXTD=More info at www.calebstine.com
EXTT0=
EXTT1=
EXTT2=
EXTT3=
EXTT4=
EXTT5=
EXTT6=
EXTT7=
EXTT8=
EXTT9=
PLAYORDER=
